HIERARCHY
ROOT ui
{
	 OFFSET 0 0 0
	 CHANNELS 3 XPosition YPosition Z Position
	 EndSite
	 {
	 OFFSET 0 -1 0
	 }
}
ROOT li
{
	 OFFSET 0 0 0
	 CHANNELS 3 XPosition YPosition Z Position
	 EndSite
	 {
	 OFFSET 0 -1 0
	 }
}
ROOT ul
{
	 OFFSET 0 0 0
	 CHANNELS 3 XPosition YPosition Z Position
	 EndSite
	 {
	 OFFSET 0 -1 0
	 }
}
ROOT ll
{
	 OFFSET 0 0 0
	 CHANNELS 3 XPosition YPosition Z Position
	 EndSite
	 {
	 OFFSET 0 -1 0
	 }
}
ROOT tt
{
	 OFFSET 0 0 0
	 CHANNELS 3 XPosition YPosition Z Position
	 EndSite
	 {
	 OFFSET 0 -1 0
	 }
}
ROOT tb
{
	 OFFSET 0 0 0
	 CHANNELS 3 XPosition YPosition Z Position
	 EndSite
	 {
	 OFFSET 0 -1 0
	 }
}
ROOT td
{
	 OFFSET 0 0 0
	 CHANNELS 3 XPosition YPosition Z Position
	 EndSite
	 {
	 OFFSET 0 -1 0
	 }
}
ROOT v
{
	 OFFSET 0 0 0
	 CHANNELS 3 XPosition YPosition Z Position
	 EndSite
	 {
	 OFFSET 0 -1 0
	 }
}
ROOT bn
{
	 OFFSET 0 0 0
	 CHANNELS 3 XPosition YPosition Z Position
	 EndSite
	 {
	 OFFSET 0 -1 0
	 }
}
MOTION
Frames: 13
Frame Time: 0.002
0.004118400096893311	0.0013404209613800048	0		0.4324658508300781	-2.365586669921875	0		-1.11725048828125	0.0507354850769043	0		-0.7465407104492188	-2.550325927734375	0		1.553835693359375	-0.6737722778320312	0		3.17259033203125	0.0072074680328369145	0		4.61272802734375	0.13389041137695312	0		5.58445947265625	0.23367327880859376	0		-0.44120135498046875	5.91695751953125	0		
-0.004938521862030029	-0.00865508270263672	0		0.40970806884765626	-2.35257080078125	0		-1.2069874267578125	0.06053705596923828	0		-0.8185511474609375	-2.546993896484375	0		1.5257154541015625	-0.6691666870117188	0		3.148936767578125	0.021016448974609376	0		4.61414404296875	0.1476495361328125	0		5.576890625	0.26576785278320314	0		-0.3070604248046875	5.938923828125	0		
-0.0026201109886169432	0.003182478904724121	0		0.4077590026855469	-2.35486572265625	0		-1.130861328125	0.05869506072998047	0		-0.7625447998046875	-2.546696533203125	0		1.546295654296875	-0.6853150634765625	0		3.165052734375	0.01822917366027832	0		4.6222353515625	0.13934513854980468	0		5.58407080078125	0.2593272705078125	0		-0.3174664306640625	5.9291435546875	0		
-0.007598176002502442	-0.003854686975479126	0		0.41673434448242186	-2.36433056640625	0		-1.2087210693359376	0.05836941146850586	0		-0.822574462890625	-2.5504990234375	0		1.5222606201171875	-0.6786983032226562	0		3.16619775390625	0.01673221778869629	0		4.6165341796875	0.14334051513671875	0		5.58901171875	0.23753860473632812	0		-0.313787353515625	5.92913916015625	0		
-0.0015489989519119262	-0.009071866989135742	0		0.42877984619140624	-2.371842041015625	0		-1.1906824951171875	0.05143827819824219	0		-0.7834713134765625	-2.54996875	0		1.528257080078125	-0.6715447998046875	0		3.1657216796875	0.03732998275756836	0		4.61773046875	0.14131221008300782	0		5.58979052734375	0.23340249633789062	0		-0.2960474853515625	5.9388896484375	0		
0.00483817720413208	0.005708722114562989	0		0.3874324951171875	-2.346401611328125	0		-1.185483154296875	0.05470040512084961	0		-0.8152066650390625	-2.542230712890625	0		1.5380511474609375	-0.6764261474609375	0		3.171580078125	0.019884706497192383	0		4.62301708984375	0.1453169403076172	0		5.59056396484375	0.229480224609375	0		-0.29261279296875	5.93887451171875	0		
0.00594608211517334	0.005583203792572021	0		0.41938885498046874	-2.36323974609375	0		-1.1262586669921875	0.05996468734741211	0		-0.74921923828125	-2.55324267578125	0		1.5299833984375	-0.6729498901367188	0		3.190942138671875	0.032277313232421875	0		4.615212890625	0.1456676025390625	0		5.5871728515625	0.2432759246826172	0		-0.2893395080566406	5.93885693359375	0		
0.0017472109794616699	-0.00944220733642578	0		0.41082449340820315	-2.35433642578125	0		-1.2001339111328124	0.06260528182983398	0		-0.7849902954101563	-2.5514453125	0		1.5287547607421874	-0.67755078125	0		3.16890185546875	0.024496641159057617	0		4.62118798828125	0.1358890380859375	0		5.5879130859375	0.23983560180664062	0		-0.301407470703125	5.9301142578125	0		
-0.011944397926330567	0.005723130226135254	0		0.40703692626953125	-2.358501708984375	0		-1.1163792724609376	0.04632732009887695	0		-0.7636951904296875	-2.547701171875	0		1.5295699462890624	-0.6781442260742188	0		3.165845947265625	0.01846122932434082	0		4.622259765625	0.13432002258300782	0		5.5863505859375	0.21944204711914062	0		-0.4157112121582031	5.92028173828125	0		
-0.04215310287475586	-0.003789052963256836	0		0.4041168212890625	-2.369665771484375	0		-1.1852850341796874	0.05287222671508789	0		-0.8194713134765625	-2.547522705078125	0		1.5392877197265624	-0.6818634643554687	0		3.18163232421875	0.0071538519859313966	0		4.61738671875	0.13898406982421874	0		5.59411083984375	0.21097953796386718	0		-0.27868057250976563	5.93675634765625	0		
0.01484167766571045	4.826699942350388E-5	0		0.4246032104492187	-2.359257080078125	0		-1.1022606201171874	0.05751452255249023	0		-0.7791896362304688	-2.545170654296875	0		1.545149658203125	-0.67546826171875	0		3.1850625	0.033165443420410154	0		4.62833203125	0.13746449279785156	0		5.58941552734375	0.2569695739746094	0		-0.26394143676757814	5.9495	0		
-2.0924000069499014E-5	0.015263193130493164	0		0.411953369140625	-2.35519775390625	0		-1.1963082275390624	0.06353918838500977	0		-0.7609682006835937	-2.54542138671875	0		1.5368883056640625	-0.6727586669921874	0		3.14370703125	0.02212141227722168	0		4.6243642578125	0.14434689331054687	0		5.59464453125	0.21102670288085937	0		-0.2900577392578125	5.92902294921875	0		
0.006261951923370361	-0.009932441711425781	0		0.4189891662597656	-2.366506591796875	0		-1.1205560302734374	0.061245269775390625	0		-0.7859090576171875	-2.5528427734375	0		1.537512451171875	-0.6731796875	0		3.173458984375	0.019776132583618163	0		4.62105126953125	0.13732546997070313	0		5.58463330078125	0.22832135009765625	0		-0.28797906494140624	5.92900390625	0		
